<svg xmlns="http://www.w3.org/2000/svg" xmlns:xlink="http://www.w3.org/1999/xlink" version="1.1" data-diagram-type="CLASS" style="width:224px;height:305px;background:#FFFFFF;" width="224px" height="305px" viewBox="0 0 224 305" zoomAndPan="magnify" preserveAspectRatio="none" contentStyleType="text/css"><?plantuml 1.2026.8?><defs/><g font-family="sans-serif" lengthAdjust="spacing"><!--class Document--><g class="entity" data-qualified-name="Document" id="ent0001" data-source-line="1"><rect x="52.01" y="7" width="114.354" height="124.272" fill="#F1F1F1" style="stroke:#181818;stroke-width:0.5;" rx="2.5" ry="2.5"/><ellipse cx="73.13" cy="23" rx="11" ry="11" fill="#ADD1B2" style="stroke:#181818;stroke-width:1;"/><path d="M72.599,29.922 Q70.849,29.922 69.708,29.188 Q68.583,28.438 68.021,27.094 Q67.474,25.734 67.474,23.938 Q67.474,21.906 68.13,20.453 Q68.786,19 70.067,18.219 Q71.349,17.438 73.224,17.438 Q74.114,17.438 74.786,17.625 Q75.458,17.797 76.146,18.141 L75.333,20.156 Q74.708,19.844 74.161,19.719 Q73.63,19.594 73.146,19.594 Q71.974,19.594 71.271,20.125 Q70.567,20.656 70.271,21.609 Q69.974,22.563 69.974,23.828 Q69.974,25.844 70.692,26.813 Q71.411,27.766 73.005,27.766 Q73.599,27.766 74.224,27.609 Q74.849,27.453 75.677,27.078 L75.677,29.297 Q74.942,29.609 74.146,29.766 Q73.364,29.922 72.599,29.922 Z " fill="#000"/><text x="88.49" y="28.432" fill="#000" font-size="14" textLength="68.754">Document</text><line x1="53.01" y1="39" x2="165.364" y2="39" style="stroke:#181818;stroke-width:0.5;"/><g data-visibility-modifier="PUBLIC_FIELD"><ellipse cx="63.01" cy="54.034" rx="3" ry="3" fill="none" style="stroke:#038048;stroke-width:1;"/></g><text x="72.01" y="57.966" fill="#000" font-size="14" textLength="73.206">String path</text><g data-visibility-modifier="PUBLIC_FIELD"><ellipse cx="63.01" cy="73.102" rx="3" ry="3" fill="none" style="stroke:#038048;stroke-width:1;"/></g><text x="72.01" y="77.034" fill="#000" font-size="14" textLength="88.354">String engine</text><line x1="53.01" y1="85.136" x2="165.364" y2="85.136" style="stroke:#181818;stroke-width:0.5;"/><g data-visibility-modifier="PUBLIC_METHOD"><ellipse cx="63.01" cy="100.17" rx="3" ry="3" fill="#84BE84" style="stroke:#038048;stroke-width:1;"/></g><text x="72.01" y="104.102" fill="#000" font-size="14" textLength="42.028">open()</text><g data-visibility-modifier="PUBLIC_METHOD"><ellipse cx="63.01" cy="119.238" rx="3" ry="3" fill="#84BE84" style="stroke:#038048;stroke-width:1;"/></g><text x="72.01" y="123.17" fill="#000" font-size="14" textLength="37.968">save()</text></g><!--class Layout--><g class="entity" data-qualified-name="Layout" id="ent0002" data-source-line="8"><rect x="7" y="191.27" width="86.382" height="99.548" fill="#F1F1F1" style="stroke:#181818;stroke-width:0.5;" rx="2.5" ry="2.5"/><ellipse cx="25.91" cy="213.976" rx="11" ry="11" fill="#ADD1B2" style="stroke:#181818;stroke-width:1;"/><path d="M25.379,220.898 Q23.629,220.898 22.488,220.164 Q21.363,219.414 20.801,218.07 Q20.254,216.71 20.254,214.914 Q20.254,212.882 20.91,211.429 Q21.566,209.976 22.848,209.195 Q24.129,208.414 26.004,208.414 Q26.895,208.414 27.566,208.601 Q28.238,208.773 28.926,209.117 L28.113,211.132 Q27.488,210.82 26.941,210.695 Q26.41,210.57 25.926,210.57 Q24.754,210.57 24.051,211.101 Q23.348,211.632 23.051,212.585 Q22.754,213.539 22.754,214.804 Q22.754,216.82 23.473,217.789 Q24.191,218.742 25.785,218.742 Q26.379,218.742 27.004,218.585 Q27.629,218.429 28.457,218.054 L28.457,220.273 Q27.723,220.585 26.926,220.742 Q26.145,220.898 25.379,220.898 Z " fill="#000"/><text x="38.779" y="209.098" fill="#000" font-size="12" textLength="49.692" font-style="italic">«sidecar»</text><text x="41.372" y="227.58" fill="#000" font-size="14" textLength="44.506">Layout</text><line x1="8" y1="236.682" x2="92.382" y2="236.682" style="stroke:#181818;stroke-width:0.5;"/><g data-visibility-modifier="PUBLIC_FIELD"><ellipse cx="18" cy="251.716" rx="3" ry="3" fill="none" style="stroke:#038048;stroke-width:1;"/></g><text x="27" y="255.648" fill="#000" font-size="14" textLength="60.382">Map pins</text><line x1="8" y1="263.75" x2="92.382" y2="263.75" style="stroke:#181818;stroke-width:0.5;"/><g data-visibility-modifier="PUBLIC_METHOD"><ellipse cx="18" cy="278.784" rx="3" ry="3" fill="#84BE84" style="stroke:#038048;stroke-width:1;"/></g><text x="27" y="282.716" fill="#000" font-size="14" textLength="44.226">apply()</text></g><!--class Adapter--><g class="entity" data-qualified-name="Adapter" id="ent0003" data-source-line="13"><rect x="128.57" y="217.05" width="81.238" height="48" fill="#F1F1F1" style="stroke:#181818;stroke-width:0.5;" rx="2.5" ry="2.5"/><ellipse cx="143.57" cy="233.05" rx="11" ry="11" fill="#B4A7E5" style="stroke:#181818;stroke-width:1;"/><path d="M139.601,239.55 L139.601,237.847 L141.961,237.581 L141.961,229.378 L139.601,229.113 L139.601,227.409 L146.742,227.409 L146.742,229.113 L144.32,229.378 L144.32,237.581 L146.742,237.847 L146.742,239.55 L139.601,239.55 Z " fill="#000"/><text x="157.57" y="238.482" fill="#000" font-size="14" textLength="49.238" font-style="italic">Adapter</text><line x1="129.57" y1="249.05" x2="208.808" y2="249.05" style="stroke:#181818;stroke-width:0.5;"/><line x1="129.57" y1="257.05" x2="208.808" y2="257.05" style="stroke:#181818;stroke-width:0.5;"/></g><!--reverse link Document to Layout--><g class="link" data-entity-1="ent0001" data-entity-2="ent0002" id="lnk4" data-source-line="15" data-link-type="composition"><path d="M83.951,142.815 C77.181,162.295 73.73,172.25 67.3,190.77" style="stroke:#181818;stroke-width:1;" fill="none" id="Document-backto-Layout" codeLine="15"/><polygon points="87.89,131.48,82.142,135.834,83.951,142.815,89.699,138.461,87.89,131.48" fill="#181818" style="stroke:#181818;stroke-width:1;stroke-linejoin:miter;stroke-miterlimit:10;"/></g><!--link Document to Adapter--><g class="link" data-entity-1="ent0001" data-entity-2="ent0003" id="lnk5" data-source-line="16" data-link-type="extension"><path d="M130.85,131.48 C141.33,161.14 147.274,177.988 155.014,199.898" style="stroke:#181818;stroke-width:1;stroke-dasharray:7,7;" fill="none" id="Document-to-Adapter" codeLine="16"/><polygon points="161.01,216.87,160.672,197.899,149.357,201.896,161.01,216.87" fill="none" style="stroke:#181818;stroke-width:1;stroke-linejoin:miter;stroke-miterlimit:10;"/></g><?plantuml-src JOxB2i9034Nt-OeiVT1-GHaGNEhABmZJM0Tg9aocXQB-knthQtVk9JbStvCPxgCVhYmPRu2uFUKKf4EbVFcBB5qGBaLKbjMwaD78Cpq0_Cjpe2aE6Pl6GikUadEByKYA6iGAase_BKz1CgSpUSPTIpepm7V9fghUkbzNrtVtENq2?></g></svg>