<svg xmlns="http://www.w3.org/2000/svg" xmlns:xlink="http://www.w3.org/1999/xlink" version="1.1" data-diagram-type="SEQUENCE" style="width:210px;height:233px;background:#FFFFFF;" width="210px" height="233px" viewBox="0 0 210 233" zoomAndPan="magnify" preserveAspectRatio="none" contentStyleType="text/css"><?plantuml 1.2026.8?><defs/><g font-family="sans-serif" lengthAdjust="spacing"><g><title>Client</title><rect x="32.337" y="44.068" width="8" height="144.824" fill="#000" fill-opacity="0"/><line x1="35.837" y1="44.068" x2="35.837" y2="188.892" style="stroke:#181818;stroke-width:0.5;stroke-dasharray:5,5;"/></g><g><title>API</title><rect x="120.583" y="44.068" width="8" height="144.824" fill="#000" fill-opacity="0"/><line x1="124.083" y1="44.068" x2="124.083" y2="188.892" style="stroke:#181818;stroke-width:0.5;stroke-dasharray:5,5;"/></g><g><title>DB</title><rect x="179.761" y="44.068" width="8" height="144.824" fill="#000" fill-opacity="0"/><line x1="183.261" y1="44.068" x2="183.261" y2="188.892" style="stroke:#181818;stroke-width:0.5;stroke-dasharray:5,5;"/></g><rect x="10" y="10" width="51.674" height="33.068" fill="#E2E2F0" style="stroke:#181818;stroke-width:0.5;" rx="2.5" ry="2.5"/><text x="17" y="31.966" fill="#000" font-size="14" textLength="37.674">Client</text><rect x="106.002" y="10" width="36.162" height="33.068" fill="#E2E2F0" style="stroke:#181818;stroke-width:0.5;" rx="2.5" ry="2.5"/><text x="113.002" y="31.966" fill="#000" font-size="14" textLength="22.162">API</text><rect x="166.601" y="10" width="33.32" height="33.068" fill="#E2E2F0" style="stroke:#181818;stroke-width:0.5;" rx="2.5" ry="2.5"/><text x="173.601" y="31.966" fill="#000" font-size="14" textLength="19.32">DB</text><rect x="10" y="188.892" width="51.674" height="33.068" fill="#E2E2F0" style="stroke:#181818;stroke-width:0.5;" rx="2.5" ry="2.5"/><text x="17" y="210.858" fill="#000" font-size="14" textLength="37.674">Client</text><rect x="106.002" y="188.892" width="36.162" height="33.068" fill="#E2E2F0" style="stroke:#181818;stroke-width:0.5;" rx="2.5" ry="2.5"/><text x="113.002" y="210.858" fill="#000" font-size="14" textLength="22.162">API</text><rect x="166.601" y="188.892" width="33.32" height="33.068" fill="#E2E2F0" style="stroke:#181818;stroke-width:0.5;" rx="2.5" ry="2.5"/><text x="173.601" y="210.858" fill="#000" font-size="14" textLength="19.32">DB</text><polygon points="112.083,71.774,122.083,75.774,112.083,79.774,116.083,75.774" fill="#181818" style="stroke:#181818;stroke-width:1;stroke-linejoin:miter;stroke-miterlimit:10;"/><line x1="35.837" y1="75.774" x2="118.083" y2="75.774" style="stroke:#181818;stroke-width:1;"/><text x="42.837" y="69.965" fill="#000" font-size="13" textLength="64.246">GET /thing</text><polygon points="171.261,103.48,181.261,107.48,171.261,111.48,175.261,107.48" fill="#181818" style="stroke:#181818;stroke-width:1;stroke-linejoin:miter;stroke-miterlimit:10;"/><line x1="124.083" y1="107.48" x2="177.261" y2="107.48" style="stroke:#181818;stroke-width:1;"/><text x="131.083" y="101.671" fill="#000" font-size="13" textLength="35.178">select</text><polygon points="135.083,135.186,125.083,139.186,135.083,143.186,131.083,139.186" fill="#181818" style="stroke:#181818;stroke-width:1;stroke-linejoin:miter;stroke-miterlimit:10;"/><line x1="129.083" y1="139.186" x2="182.261" y2="139.186" style="stroke:#181818;stroke-width:1;stroke-dasharray:2,2;"/><text x="141.083" y="133.377" fill="#000" font-size="13" textLength="23.452">row</text><polygon points="46.837,166.892,36.837,170.892,46.837,174.892,42.837,170.892" fill="#181818" style="stroke:#181818;stroke-width:1;stroke-linejoin:miter;stroke-miterlimit:10;"/><line x1="40.837" y1="170.892" x2="123.083" y2="170.892" style="stroke:#181818;stroke-width:1;stroke-dasharray:2,2;"/><text x="52.837" y="165.083" fill="#000" font-size="13" textLength="43.888">200 OK</text><?plantuml-src AqWiAibCpYn8p2jHSCx9JCqhuIf04d8Cy4JXkpXnSK6KAUZQWMGLh1JSNKCKz4ioClFIkK02G74N9w1mSMfEQd895v2j2rTQb5yEKGCKWHfZfM1aOA3Wxmq0?></g></svg>